<svg xmlns="http://www.w3.org/2000/svg" xmlns:xlink="http://www.w3.org/1999/xlink" width="61" height="61" viewBox="0 0 61 61"><defs><path id="rbxca" d="M190.84 45h22c2.84 0 5.16 2.4 5.16 5.3v21.5c0 4.28-1.67 8.35-4.65 11.4l-18.3 18.22a15.46 15.46 0 0 1-10.89 4.58h-22a5.25 5.25 0 0 1-5.16-5.3V79.2c0-4.28 1.67-8.35 4.65-11.4l18.3-18.22A15.16 15.16 0 0 1 190.84 45zm-4.43 22.51l-.87.87c-1.16 1.24-2.76 3.42-2.76 5.81l.07 16.41c0 2.76-.43 5.45-1.45 6.61-2.4 2.54-3.12-2.18-1.82-5.3 0 0-5.95 2.54-4.35 6.47 1.09 2.68 4.64 1.81 7.4-1.17a39.22 39.22 0 0 0 4.07-4.43c.51-.8 1.3-1.45 1.3-4.57V72.23c.08-1.3.3-2.61.73-3.85l7.12 2.54c6.32 1.6 9.95 1.02 13.94-2.68 5.52-5.09 3.56-10.68-.5-11.4a4.4 4.4 0 0 0-3.34 1.16l-2.76 3.27c6.82-2.33 8.93 4.86 5 6.75-3.33 1.53-17.42-4.72-21.13-6.1-10.09-3.85-14.3 1.23-16.26 3.92-4.29 5.96-2.69 12.71 1.6 13.15 3.55.36 5.37-2.7 7.84-7.77-7.77 5.8-10.53 1.01-9.3-2.55.73-2.1 3.56-3.92 7.7-3.48a21.82 21.82 0 0 1 2.83.58c1.24.43 2.76.94 4.94 1.74z"/></defs><g><g transform="translate(-157 -45)"><use fill="#e21f27" xlink:href="#rbxca"/></g></g></svg>