<svg xmlns="http://www.w3.org/2000/svg" xmlns:xlink="http://www.w3.org/1999/xlink" width="22" height="24" viewBox="0 0 22 24"><defs><path id="1p14a" d="M24.207 385.006l9.655-9.89a3.05 3.05 0 0 0 0-4.24 2.877 2.877 0 0 0-4.138 0l-10.345 10.598c-1.904 1.95-1.904 5.114 0 7.065a4.795 4.795 0 0 0 6.897 0L36.62 377.94 38 379.354l-10.345 10.598a6.713 6.713 0 0 1-9.655 0c-2.667-2.732-2.667-7.16 0-9.891l10.345-10.598a4.795 4.795 0 0 1 6.896 0c1.905 1.951 1.905 5.114 0 7.065l-9.655 9.891a2.877 2.877 0 0 1-4.138 0 3.05 3.05 0 0 1 0-4.239l8.966-9.184 1.379 1.413-8.966 9.184c-.38.39-.38 1.023 0 1.413.381.39.999.39 1.38 0z"/></defs><g><g transform="translate(-16 -368)"><use fill="#0179ff" xlink:href="#1p14a"/></g></g></svg>