<svg xmlns="http://www.w3.org/2000/svg" xmlns:xlink="http://www.w3.org/1999/xlink" width="34" height="33" viewBox="0 0 34 33"><defs><path id="xudma" d="M16 185a6 6 0 0 1 6-6h22a6 6 0 0 1 6 6v21a6 6 0 0 1-6 6H22a6 6 0 0 1-6-6z"/><path id="xudmc" d="M27 187v2h-1v16h14v-16h-1v-2h1a2 2 0 0 1 2 2v16a2 2 0 0 1-2 2H26a2 2 0 0 1-2-2v-16c0-1.1.9-2 2-2h1m1.5 7h9a.5.5 0 0 1 0 1h-9a.5.5 0 0 1 0-1zm0 3h4a.5.5 0 0 1 0 1h-4a.5.5 0 0 1 0-1zm6 0h3a.5.5 0 0 1 0 1h-3a.5.5 0 0 1 0-1zm2.5-12a1 1 0 0 1 1 1v4a1 1 0 0 1-1 1h-8a1 1 0 0 1-1-1v-4a1 1 0 0 1 1-1h1.17a3 3 0 0 1 5.66 0zm-7 4h6v-2h-1.59l-.47-1.33a1 1 0 0 0-1.88 0l-.47 1.33H30z"/><linearGradient id="xudmb" x1="25.18" x2="25.18" y1="179" y2="212" gradientUnits="userSpaceOnUse"><stop offset="0" stop-color="#ff8e09"/><stop offset="1" stop-color="#ff6236"/></linearGradient></defs><g><g transform="translate(-16 -179)"><use fill="url(#xudmb)" xlink:href="#xudma"/></g><g transform="translate(-16 -179)"><g><use fill="#fff" xlink:href="#xudmc"/></g></g></g></svg>