<?xml version="1.0" encoding="utf-8"?>
<!-- Generator: Adobe Illustrator 17.1.0, SVG Export Plug-In . SVG Version: 6.00 Build 0)  -->
<!DOCTYPE svg PUBLIC "-//W3C//DTD SVG 1.1//EN" "http://www.w3.org/Graphics/SVG/1.1/DTD/svg11.dtd">
<svg version="1.1" id="Слой_1" xmlns="http://www.w3.org/2000/svg" xmlns:xlink="http://www.w3.org/1999/xlink" x="0px" y="0px"
	 width="40px" height="40px" viewBox="0 0 40 40" enable-background="new 0 0 40 40" xml:space="preserve">
<g>
	<path id="_x38_xu9a_3_" fill="#E5F0F9" d="M0,20C0,9,9,0,20,0s20,9,20,20s-9,20-20,20S0,31,0,20z"/>
	<path id="_x38_xu9d" fill="#0078FE" d="M22,10l6,6v12c0,1.1-0.9,2-2,2H14c-1.1,0-2-0.9-2-2V12c0-1.1,0.9-2,2-2H22z M26.5,17
		L21,11.5V17H26.5z M19,21v-1h-4v1H19z M21,24v-1h-6v1H21z M23,27v-1h-8v1H23z"/>
</g>
</svg>
