<?xml version="1.0" encoding="utf-8"?>
<!-- Generator: Adobe Illustrator 17.1.0, SVG Export Plug-In . SVG Version: 6.00 Build 0)  -->
<!DOCTYPE svg PUBLIC "-//W3C//DTD SVG 1.1//EN" "http://www.w3.org/Graphics/SVG/1.1/DTD/svg11.dtd">
<svg version="1.1" id="Слой_1" xmlns="http://www.w3.org/2000/svg" xmlns:xlink="http://www.w3.org/1999/xlink" x="0px" y="0px"
	 width="40px" height="40px" viewBox="2 0 40 40" enable-background="new 2 0 40 40" xml:space="preserve">
<g>
	<path id="_x38_xu9a_3_" fill="#2196F3" d="M2,20C2,9,11,0,22,0s20,9,20,20s-9,20-20,20S2,31,2,20z"/>
	<path id="_x38_xu9d" fill="#FFFFFF" d="M24,10l6,6v12c0,1.1-0.9,2-2,2H16c-1.1,0-2-0.9-2-2l0-16c0-1.1,0.9-2,2-2H24z M28.5,17
		L23,11.5V17H28.5z M21,21v-1h-4v1H21z M23,24v-1h-6v1H23z M25,27v-1h-8v1H25z"/>
</g>
</svg>
