<svg xmlns="http://www.w3.org/2000/svg" xmlns:xlink="http://www.w3.org/1999/xlink" width="32" height="14" viewBox="0 0 32 14"><defs><path id="brrga" d="M37.34 310.37c-.8-.92-2.33-1.37-4.68-1.37-2.95 0-5.23.94-5.25.96a.28.28 0 0 0-.16.27l.29 1.94c0 .04.03.08.06.1.04.02.08.03.12.01.02 0 1.16-.35 2.33-.55 1.87-.33 2.93-.25 3.46.27.3.28.4.7.34 1.23l-.05.37s-2.28.31-3.78.6-2.43.61-3.16 1.1c-1.54 1.03-1.92 3.04-1.63 4.48.26 1.26 1.35 2.76 5.04 2.76h.28c5.65 0 6.4-.99 6.64-3.08l.34-2.78.44-3.67c.14-1.14-.06-2-.63-2.64zm-3.85 5.73l-.13 1.1-.34 2.76-.04.02c-.03 0-.63.2-1.62.2-.39 0-1.19 0-1.7-.52-.28-.3-.43-.71-.43-1.25 0-1.1.64-1.8 1.94-2.04 1.31-.25 2.33-.37 2.33-.37z"/><path id="brrgb" d="M24.83 309h-3.57c-.3.04-.52.14-.65.3 0 0-4.36 5.43-4.47 5.55a.62.62 0 0 0-.06.7l3.47 6.25c.09.19.34.34.56.34h3.1c.21 0 .32-.15.21-.33l-3.48-6.24 5.04-6.28c.13-.16.07-.29-.15-.29"/><path id="brrgc" d="M39.08 322.14h3.57c.3-.04.52-.14.65-.3l4.46-5.55a.62.62 0 0 0 .07-.7l-3.47-6.26a.7.7 0 0 0-.56-.33h-3.1c-.21 0-.32.15-.21.32l3.48 6.25-5.04 6.28c-.14.16-.07.29.15.29"/></defs><g><g transform="translate(-16 -309)"><use fill="#fff" xlink:href="#brrga"/></g><g transform="translate(-16 -309)"><use fill="#fff" xlink:href="#brrgb"/></g><g transform="translate(-16 -309)"><use fill="#fff" xlink:href="#brrgc"/></g></g></svg>