<svg xmlns="http://www.w3.org/2000/svg" xmlns:xlink="http://www.w3.org/1999/xlink" width="34" height="33" viewBox="0 0 34 33"><defs><path id="bnn9a" d="M16 186a6 6 0 0 1 6-6h22a6 6 0 0 1 6 6v21a6 6 0 0 1-6 6H22a6 6 0 0 1-6-6z"/><path id="bnn9c" d="M28 197h3v-1h-3zm10.96.58l-2.14-2.08a1 1 0 0 0-1.4 1.44l3.6 3.47.7-.72a1 1 0 0 0 .1-.12l5.46-5.65a1 1 0 0 0-1.44-1.4zM28 200h5v-1h-5zm0 3h7v-1h-7zm12-12a5 5 0 0 0-5-5H24v19c0 1.1.9 2 2 2h12a2 2 0 0 0 2-2v-2h-2v2H26v-17h9a3 3 0 0 1 3 3v2h2z"/><linearGradient id="bnn9b" x1="36.54" x2="36.54" y1="213" y2="155.79" gradientUnits="userSpaceOnUse"><stop offset="0" stop-color="#5a56d7"/><stop offset="1" stop-color="#c044fa"/></linearGradient></defs><g><g transform="translate(-16 -180)"><use fill="url(#bnn9b)" xlink:href="#bnn9a"/></g><g transform="translate(-16 -180)"><use fill="#fff" xlink:href="#bnn9c"/></g></g></svg>