<svg xmlns="http://www.w3.org/2000/svg" xmlns:xlink="http://www.w3.org/1999/xlink" width="18" height="15" viewBox="0 0 18 15"><defs><path id="yy32a" d="M21.844 1838.779a.535.535 0 0 0 .603-.127l6.39-6.823a.606.606 0 0 0 .163-.418.608.608 0 0 0-.162-.418l-6.39-6.821a.538.538 0 0 0-.603-.129.591.591 0 0 0-.342.546v3.967c-5.607.191-9.708 3.275-10.494 7.933a.604.604 0 0 0 .338.653c.237.1.519.009.662-.213.891-1.377 3.28-2.849 7.31-2.849.693 0 1.426.044 2.184.132v4.021c0 .24.133.453.341.546z"/></defs><g><g transform="translate(-11 -1824)"><use fill="#c5c8ca" xlink:href="#yy32a"/></g></g></svg>