<svg xmlns="http://www.w3.org/2000/svg" xmlns:xlink="http://www.w3.org/1999/xlink" width="24" height="19" viewBox="0 0 24 19"><defs><path id="zfhka" d="M288.46 718.943a.728.728 0 0 0 .804-.163l8.52-8.745a.76.76 0 0 0 .216-.535.763.763 0 0 0-.216-.536l-8.52-8.744a.738.738 0 0 0-.804-.165.756.756 0 0 0-.456.7v5.085c-7.477.245-12.944 4.197-13.993 10.168a.768.768 0 0 0 .451.836.74.74 0 0 0 .883-.272c1.189-1.766 4.373-3.652 9.747-3.652.924 0 1.902.057 2.912.169v5.154c0 .307.178.58.455.7z"/></defs><g><g transform="translate(-274 -700)"><use fill="#c5c8ca" xlink:href="#zfhka"/></g></g></svg>