<svg xmlns="http://www.w3.org/2000/svg" xmlns:xlink="http://www.w3.org/1999/xlink" width="18" height="14" viewBox="0 0 18 14"><defs><path id="ixz8a" d="M78.844 1421.958a.55.55 0 0 0 .603-.12l6.39-6.444A.555.555 0 0 0 86 1415a.557.557 0 0 0-.162-.395l-6.39-6.443a.56.56 0 0 0-.603-.121.557.557 0 0 0-.342.516v3.746c-5.607.18-9.708 3.093-10.494 7.492a.564.564 0 0 0 .338.617.56.56 0 0 0 .662-.201c.891-1.301 3.28-2.69 7.31-2.69.693 0 1.426.041 2.184.123v3.798c0 .226.133.428.341.516z"/></defs><g><g opacity=".5" transform="translate(-68 -1408)"><use fill="#fff" xlink:href="#ixz8a"/></g></g></svg>