<svg xmlns="http://www.w3.org/2000/svg" xmlns:xlink="http://www.w3.org/1999/xlink" width="30" height="30" viewBox="0 0 30 30"><defs><path id="156la" d="M323 380c0-8.284 6.716-15 15-15 8.284 0 15 6.716 15 15 0 8.284-6.716 15-15 15-8.284 0-15-6.716-15-15z"/><path id="156lb" d="M338.95 387a1 1 0 0 1-2 0v-11.596l-3.248 3.248a1 1 0 0 1-1.414-1.414l4.95-4.95a.997.997 0 0 1 1.414 0l4.95 4.95a1 1 0 0 1-1.414 1.414l-3.238-3.238z"/></defs><g><g transform="translate(-323 -365)"><use fill="#2dc970" xlink:href="#156la"/></g><g transform="translate(-323 -365)"><use fill="#fafafa" xlink:href="#156lb"/></g></g></svg>