<svg xmlns="http://www.w3.org/2000/svg" xmlns:xlink="http://www.w3.org/1999/xlink" width="193" height="66" viewBox="0 0 193 66"><defs><path id="b4dyc" d="M169.61 96.54V79.67h11.89v3.16h-8.31v13.7z"/><path id="b4dyd" d="M182.28 94.2c.98 0 1.56-1 1.94-3.96l.78-5.92h9.84v12.21h-3.2v-9.4h-3.85l-.4 3.49c-.5 4.22-2.01 6.21-5.11 6.21z"/><path id="b4dye" d="M205.54 96.54v-1.27a5.02 5.02 0 0 1-3.85 1.57c-1.94 0-4.23-1.32-4.23-4.05 0-2.85 2.3-3.94 4.23-3.94 1.61 0 3.05.53 3.85 1.5V88.7c0-1.24-1.06-2.05-2.67-2.05a5.1 5.1 0 0 0-3.55 1.44l-1.2-2.15a7.96 7.96 0 0 1 5.3-1.92c2.78 0 5.32 1.11 5.32 4.63v7.89zm0-2.93v-1.52c-.53-.71-1.53-1.07-2.57-1.07-1.25 0-2.29.66-2.29 1.86 0 1.14 1.04 1.8 2.3 1.8 1.03 0 2.03-.36 2.56-1.07z"/><path id="b4dyf" d="M212.13 96.53V84.32h7.7c2.47 0 3.73 1.5 3.73 3.14 0 1.46-.93 2.45-2.06 2.78a3.02 3.02 0 0 1 2.31 2.98c0 1.85-1.3 3.31-3.75 3.31zm7.04-9.58h-3.84V89h3.84c.7 0 1.13-.46 1.13-1.01 0-.61-.43-1.04-1.13-1.04zm.11 4.68h-3.95v2.26h3.95c.78 0 1.26-.43 1.26-1.13 0-.6-.45-1.13-1.26-1.13z"/><path id="b4dyg" d="M226.33 89.86c0-5.94 2.14-8.6 6.32-9.15 2.04-.3 2.75-.61 2.75-1.04h3.32c0 2.38-3.07 3.03-5.06 3.29-2.87.38-4.06 1.64-4.38 3.06a5.1 5.1 0 0 1 4.15-2c3.48 0 5.74 2.98 5.74 6.37 0 3.44-2.36 6.45-6.42 6.45-4.05 0-6.42-3.01-6.42-6.98m9.54.5c0-1.84-1.13-3.49-3.12-3.49-1.99 0-3.1 1.65-3.1 3.5 0 1.97 1.11 3.61 3.1 3.61s3.12-1.64 3.12-3.62"/><path id="b4dyh" d="M241.92 98.43c.27.12.7.2 1 .2.84 0 1.39-.23 1.7-.88l.44-1.04-4.93-12.39h3.42l3.18 8.5 3.17-8.5h3.45l-5.72 14.21c-.9 2.3-2.52 2.9-4.6 2.96-.38 0-1.19-.08-1.6-.18z"/><path id="b4dyi" d="M262.54 96.53l-2.77-4.12-2.8 4.12h-3.55l4.3-6.27-4.05-5.94h3.58l2.52 3.77 2.49-3.77h3.57l-4.07 5.94 4.35 6.27z"/><path id="b4dyj" d="M180.5 121.8l-1.48-3.74h-8.36l-1.49 3.75h-2.39l6.75-16.87h2.6l6.77 16.87zm-5.66-14.68l-3.58 9.06h7.13z"/><path id="b4dyk" d="M184.52 115.69c0-3.62 2.44-6.4 6.07-6.4a5.2 5.2 0 0 1 4.46 2.12l-1.26 1.17a3.6 3.6 0 0 0-3.1-1.6c-2.6 0-4.2 2-4.2 4.7 0 2.71 1.6 4.74 4.2 4.74 1.26 0 2.3-.51 3.1-1.6l1.26 1.17a5.2 5.2 0 0 1-4.46 2.12c-3.63 0-6.07-2.78-6.07-6.42"/><path id="b4dyl" d="M197.21 115.69c0-3.62 2.44-6.4 6.07-6.4a5.2 5.2 0 0 1 4.46 2.12l-1.26 1.17a3.6 3.6 0 0 0-3.1-1.6c-2.6 0-4.2 2-4.2 4.7 0 2.71 1.6 4.74 4.2 4.74 1.26 0 2.3-.51 3.1-1.6l1.26 1.17a5.2 5.2 0 0 1-4.46 2.12c-3.63 0-6.07-2.78-6.07-6.42"/><path id="b4dym" d="M210.61 121.81V109.6h1.89v9.33l6.37-9.33h1.86v12.21h-1.89v-9.5l-6.42 9.5z"/><path id="b4dyn" d="M224.02 115.69c0-3.62 2.44-6.4 6.07-6.4a5.2 5.2 0 0 1 4.46 2.12l-1.26 1.17a3.6 3.6 0 0 0-3.1-1.6c-2.6 0-4.2 2-4.2 4.7 0 2.71 1.6 4.74 4.2 4.74 1.26 0 2.3-.51 3.1-1.6l1.26 1.17a5.2 5.2 0 0 1-4.46 2.12c-3.63 0-6.07-2.78-6.07-6.42"/><path id="b4dyo" d="M239.64 121.81v-10.54h-3.53v-1.67h8.97v1.67h-3.55v10.54z"/><path id="b4dyp" d="M247.06 115.69c0-3.54 2.52-6.4 6-6.4 3.67 0 5.83 2.88 5.83 6.55v.48h-9.84c.15 2.3 1.76 4.22 4.38 4.22 1.39 0 2.8-.56 3.75-1.54l.9 1.24a6.6 6.6 0 0 1-4.83 1.87c-3.6 0-6.19-2.6-6.19-6.42m5.97-4.83c-2.6 0-3.88 2.2-3.98 4.07h7.98c-.02-1.82-1.23-4.07-4-4.07"/><path id="b4dyq" d="M262.16 121.81V109.6h1.89v5.08h6.34v-5.08h1.9v12.21h-1.9v-5.46h-6.34v5.46z"/><path id="b4dya" d="M274.97 109.6h8.96v12.21h-8.96z"/><path id="b4dys" d="M278.5 121.81v-10.54h-3.53v-1.67h8.96v1.67h-3.55v10.54z"/><path id="b4dyb" d="M91 67h65.87v66H91z"/><path id="b4dyu" d="M127.5 67h23.78a5.68 5.68 0 0 1 5.6 5.74v23.3c0 4.61-1.8 9.04-5.01 12.33l-19.84 19.73a16.61 16.61 0 0 1-11.78 4.9H96.6a5.6 5.6 0 0 1-5.6-5.73v-23.21c0-4.61 1.8-9.05 5-12.35l19.73-19.65A16.3 16.3 0 0 1 127.5 67m-4.85 24.08l-.92.94a10.07 10.07 0 0 0-2.88 6.32v17.8c0 3-.46 5.92-1.54 7.18-2.55 2.81-3.32-2.35-1.93-5.75 0 0-6.3 2.8-4.62 7.02 1.16 2.92 4.93 1.96 7.86-1.27 1.56-1.49 3-3.1 4.31-4.81.55-.86 1.4-1.57 1.4-4.96V96.21c.06-1.43.32-2.85.77-4.21l7.55 2.8c6.7 1.75 10.55 1.11 14.78-2.92 5.85-5.52 3.78-11.58-.54-12.37a4.6 4.6 0 0 0-3.54 1.25c-.77.96-2.92 3.55-2.92 3.55 7.23-2.52 9.46 5.28 5.31 7.33-3.54 1.66-18.49-5.12-22.38-6.6-10.7-4.22-15.17 1.4-17.25 4.2-4.55 6.46-2.8 13.8 1.69 14.27 3.77.4 5.7-2.9 8.32-8.42-8.24 6.3-11.19 1.09-9.79-2.81.77-2.3 3.78-4.22 8.17-3.8a21.51 21.51 0 0 1 2.95.7c1.27.48 2.9 1.03 5.2 1.9"/><clipPath id="b4dyr"><use xlink:href="#b4dya"/></clipPath><clipPath id="b4dyt"><use xlink:href="#b4dyb"/></clipPath></defs><g><g transform="translate(-91 -67)"><g><use fill="#3d3d3d" xlink:href="#b4dyc"/></g><g><g><use fill="#3d3d3d" xlink:href="#b4dyd"/></g><g><use fill="#3d3d3d" xlink:href="#b4dye"/></g><g><use fill="#3d3d3d" xlink:href="#b4dyf"/></g><g><use fill="#3d3d3d" xlink:href="#b4dyg"/></g><g><use fill="#3d3d3d" xlink:href="#b4dyh"/></g><g><use fill="#3d3d3d" xlink:href="#b4dyi"/></g></g><g><use fill="#3d3d3d" xlink:href="#b4dyj"/></g><g><g><use fill="#3d3d3d" xlink:href="#b4dyk"/></g><g><use fill="#3d3d3d" xlink:href="#b4dyl"/></g><g><use fill="#3d3d3d" xlink:href="#b4dym"/></g><g><use fill="#3d3d3d" xlink:href="#b4dyn"/></g><g><use fill="#3d3d3d" xlink:href="#b4dyo"/></g><g><use fill="#3d3d3d" xlink:href="#b4dyp"/></g><g><use fill="#3d3d3d" xlink:href="#b4dyq"/></g><g><g/><g clip-path="url(#b4dyr)"><use fill="#3d3d3d" xlink:href="#b4dys"/></g></g><g><g/><g clip-path="url(#b4dyt)"><use fill="#e01f27" xlink:href="#b4dyu"/></g></g></g></g></g></svg>